# Blender v2.93.5 OBJ File: 'desk-final.blend'
# www.blender.org
mtllib desk.mtl
o Table.003_Cube.004
v 0.285000 0.695000 0.760000
v 0.315000 0.695000 0.760000
v 0.285000 0.652345 0.760000
v 0.315000 0.652345 0.760000
v 0.285000 0.652345 0.805000
v 0.285000 0.695000 0.805000
v 0.315000 0.695000 0.805000
v 0.315000 0.652345 0.805000
v 0.285000 -0.015000 -0.805000
v 0.285000 0.695000 -0.805000
v 0.285000 -0.015000 -0.835000
v 0.285000 0.695000 -0.835000
v 0.315000 -0.015000 -0.805000
v 0.315000 0.695000 -0.805000
v 0.315000 -0.015000 -0.835000
v 0.315000 0.695000 -0.835000
v 0.285000 0.652345 -0.805000
v 0.285000 0.652345 -0.835000
v 0.315000 0.652345 -0.835000
v 0.315000 0.652345 -0.805000
v -0.375000 0.695000 0.875000
v -0.375000 0.725000 0.875000
v -0.375000 0.695000 -0.875000
v -0.375000 0.725000 -0.875000
v 0.375000 0.695000 0.875000
v 0.375000 0.725000 0.875000
v 0.375000 0.695000 -0.875000
v 0.375000 0.725000 -0.875000
v -0.025835 0.695000 0.760000
v -0.025836 0.495000 0.760000
v 0.349053 0.695000 0.760000
v 0.349053 0.495000 0.760000
v -0.025835 0.695000 0.360000
v -0.025836 0.495000 0.360000
v 0.349053 0.695000 0.360000
v 0.349053 0.495000 0.360000
v -0.025835 0.695000 -0.360000
v -0.025836 0.495000 -0.360000
v 0.349053 0.695000 -0.360000
v 0.349053 0.495000 -0.360000
v -0.025835 0.695000 -0.760000
v -0.025836 0.495000 -0.760000
v 0.349053 0.695000 -0.760000
v 0.349053 0.495000 -0.760000
v 0.285000 -0.015000 0.835000
v 0.285000 0.695000 0.835000
v 0.285000 -0.015000 0.805000
v 0.285000 0.695000 0.805000
v 0.315000 -0.015000 0.835000
v 0.315000 0.695000 0.835000
v 0.315000 -0.015000 0.805000
v 0.315000 0.695000 0.805000
v 0.285000 0.652345 0.835000
v 0.285000 0.652345 0.805000
v 0.315000 0.652345 0.805000
v 0.315000 0.652345 0.835000
v -0.315000 -0.015000 0.835000
v -0.315000 0.695000 0.835000
v -0.315000 -0.015000 0.805000
v -0.315000 0.695000 0.805000
v -0.285000 -0.015000 0.835000
v -0.285000 0.695000 0.835000
v -0.285000 -0.015000 0.805000
v -0.285000 0.695000 0.805000
v -0.315000 0.652345 0.835000
v -0.315000 0.652345 0.805000
v -0.285000 0.652345 0.805000
v -0.285000 0.652345 0.835000
v -0.315000 -0.015000 -0.805000
v -0.315000 0.695000 -0.805000
v -0.315000 -0.015000 -0.835000
v -0.315000 0.695000 -0.835000
v -0.285000 -0.015000 -0.805000
v -0.285000 0.695000 -0.805000
v -0.285000 -0.015000 -0.835000
v -0.285000 0.695000 -0.835000
v -0.315000 0.652345 -0.805000
v -0.315000 0.652345 -0.835000
v -0.285000 0.652345 -0.835000
v -0.285000 0.652345 -0.805000
v 0.285000 0.695000 -0.805000
v 0.315000 0.695000 -0.805000
v 0.285000 0.652345 -0.805000
v 0.315000 0.652345 -0.805000
v 0.285000 0.652345 -0.756087
v 0.285000 0.695000 -0.756087
v 0.315000 0.695000 -0.756087
v 0.315000 0.652345 -0.756087
v 0.285000 0.695000 -0.360000
v 0.315000 0.695000 -0.360000
v 0.285000 0.652345 -0.360000
v 0.315000 0.652345 -0.360000
v 0.285000 0.652345 0.360453
v 0.285000 0.695000 0.360453
v 0.315000 0.695000 0.360453
v 0.315000 0.652345 0.360453
vt 0.625000 0.750000
vt 0.609981 0.750000
vt 0.609981 0.750000
vt 0.875000 0.750000
vt 0.625000 0.750000
vt 0.609981 1.000000
vt 0.609981 1.000000
vt 0.609981 0.000000
vt 0.625000 0.000000
vt 0.625000 0.000000
vt 0.875000 0.750000
vt 0.625000 0.000000
vt 0.609981 0.250000
vt 0.609981 0.000000
vt 0.625000 0.250000
vt 0.609981 0.500000
vt 0.625000 0.500000
vt 0.609981 0.750000
vt 0.375000 0.500000
vt 0.125000 0.750000
vt 0.125000 0.500000
vt 0.875000 0.500000
vt 0.625000 0.750000
vt 0.375000 1.000000
vt 0.375000 0.750000
vt 0.375000 0.250000
vt 0.375000 0.000000
vt 0.625000 0.000000
vt 0.375000 0.250000
vt 0.375000 0.000000
vt 0.625000 0.250000
vt 0.375000 0.500000
vt 0.625000 0.500000
vt 0.375000 0.750000
vt 0.625000 0.750000
vt 0.375000 1.000000
vt 0.125000 0.750000
vt 0.125000 0.500000
vt 0.875000 0.500000
vt 0.375000 0.000000
vt 0.625000 0.250000
vt 0.375000 0.250000
vt 0.375000 0.500000
vt 0.625000 0.500000
vt 0.375000 0.750000
vt 0.625000 0.750000
vt 0.375000 1.000000
vt 0.125000 0.750000
vt 0.125000 0.500000
vt 0.875000 0.500000
vt 0.375000 0.000000
vt 0.625000 0.250000
vt 0.375000 0.250000
vt 0.375000 0.500000
vt 0.625000 0.500000
vt 0.375000 0.750000
vt 0.625000 0.750000
vt 0.375000 1.000000
vt 0.125000 0.750000
vt 0.125000 0.500000
vt 0.875000 0.500000
vt 0.625000 0.000000
vt 0.609981 0.250000
vt 0.609981 0.000000
vt 0.625000 0.500000
vt 0.609981 0.750000
vt 0.609981 0.500000
vt 0.625000 0.750000
vt 0.609981 1.000000
vt 0.375000 0.500000
vt 0.125000 0.750000
vt 0.125000 0.500000
vt 0.875000 0.500000
vt 0.375000 1.000000
vt 0.375000 0.750000
vt 0.375000 0.250000
vt 0.375000 0.000000
vt 0.625000 0.000000
vt 0.609981 0.250000
vt 0.609981 0.000000
vt 0.625000 0.250000
vt 0.609981 0.500000
vt 0.625000 0.500000
vt 0.609981 0.750000
vt 0.625000 0.750000
vt 0.609981 1.000000
vt 0.375000 0.500000
vt 0.125000 0.750000
vt 0.125000 0.500000
vt 0.875000 0.500000
vt 0.375000 1.000000
vt 0.375000 0.750000
vt 0.375000 0.250000
vt 0.375000 0.000000
vt 0.625000 0.000000
vt 0.609981 0.250000
vt 0.609981 0.000000
vt 0.625000 0.250000
vt 0.609981 0.500000
vt 0.625000 0.500000
vt 0.609981 0.750000
vt 0.625000 0.750000
vt 0.609981 1.000000
vt 0.375000 0.500000
vt 0.125000 0.750000
vt 0.125000 0.500000
vt 0.875000 0.500000
vt 0.375000 1.000000
vt 0.375000 0.750000
vt 0.375000 0.250000
vt 0.375000 0.000000
vt 0.000000 0.000000
vt 0.000000 0.000000
vt 0.000000 0.000000
vt 0.625000 0.250000
vt 0.625000 0.750000
vt 0.609981 0.750000
vt 0.609981 0.750000
vt 0.625000 0.750000
vt 0.609981 1.000000
vt 0.875000 0.750000
vt 0.609981 1.000000
vt 0.609981 0.000000
vt 0.625000 0.000000
vt 0.625000 0.000000
vt 0.625000 0.750000
vt 0.609981 0.750000
vt 0.609981 0.750000
vt 0.875000 0.750000
vt 0.625000 0.750000
vt 0.609981 1.000000
vt 0.609981 1.000000
vt 0.609981 0.000000
vt 0.625000 0.000000
vt 0.625000 0.000000
vt 0.875000 0.750000
vt 0.000000 0.000000
vt 0.000000 0.000000
vt 0.000000 0.000000
vt 0.999977 0.000023
vt 0.000023 0.052652
vt 0.000023 0.000024
vt 0.609981 0.000000
vt 0.875000 0.750000
vt 0.609981 1.000000
vt 0.625000 1.000000
vt 0.875000 0.750000
vt 0.625000 0.000000
vt 0.625000 1.000000
vt 0.875000 0.750000
vt 0.625000 0.000000
vt 0.625000 1.000000
vt 0.875000 0.750000
vt 0.625000 1.000000
vt 0.875000 0.750000
vt 0.625000 1.000000
vt 0.875000 0.750000
vt 0.625000 1.000000
vt 0.875000 0.750000
vt 0.000000 0.000000
vt 0.625000 1.000000
vt 0.875000 0.750000
vt 0.609981 0.000000
vt 0.609981 0.000000
vt 0.999977 0.052652
vn 1.0000 0.0000 0.0000
vn 0.0000 1.0000 0.0000
vn 0.0000 -1.0000 0.0000
vn -1.0000 0.0000 0.0000
vn 0.0000 0.0000 -1.0000
vn 0.0000 0.0000 1.0000
usemtl None
s off
f 2/1/1 8/2/1 4/3/1
f 1/4/2 7/5/2 2/1/2
f 4/3/3 5/6/3 3/7/3
f 3/8/4 6/9/4 1/10/4
f 1/4/5 4/3/5 3/7/5
f 8/2/6 6/11/6 5/6/6
f 10/12/4 18/13/4 17/14/4
f 12/15/5 19/16/5 18/13/5
f 16/17/1 20/18/1 19/16/1
f 15/19/3 9/20/3 11/21/3
f 12/22/2 14/23/2 16/17/2
f 20/18/6 9/24/6 13/25/6
f 19/16/1 13/25/1 15/19/1
f 18/13/5 15/19/5 11/26/5
f 17/14/4 11/26/4 9/27/4
f 22/28/4 23/29/4 21/30/4
f 24/31/5 27/32/5 23/29/5
f 28/33/1 25/34/1 27/32/1
f 26/35/6 21/36/6 25/34/6
f 27/32/3 21/37/3 23/38/3
f 24/39/2 26/35/2 28/33/2
f 29/40/6 32/41/6 31/42/6
f 32/41/1 35/43/1 31/42/1
f 36/44/5 33/45/5 35/43/5
f 34/46/4 29/47/4 33/45/4
f 35/43/2 29/48/2 31/49/2
f 32/50/3 34/46/3 36/44/3
f 37/51/6 40/52/6 39/53/6
f 40/52/1 43/54/1 39/53/1
f 44/55/5 41/56/5 43/54/5
f 42/57/4 37/58/4 41/56/4
f 43/54/2 37/59/2 39/60/2
f 40/61/3 42/57/3 44/55/3
f 46/62/4 54/63/4 53/64/4
f 52/65/1 56/66/1 55/67/1
f 50/68/6 53/69/6 56/66/6
f 51/70/3 45/71/3 47/72/3
f 48/73/2 50/68/2 52/65/2
f 56/66/6 45/74/6 49/75/6
f 55/67/1 49/75/1 51/70/1
f 54/63/5 51/70/5 47/76/5
f 53/64/4 47/76/4 45/77/4
f 58/78/4 66/79/4 65/80/4
f 60/81/5 67/82/5 66/79/5
f 64/83/1 68/84/1 67/82/1
f 62/85/6 65/86/6 68/84/6
f 63/87/3 57/88/3 59/89/3
f 60/90/2 62/85/2 64/83/2
f 68/84/6 57/91/6 61/92/6
f 67/82/1 61/92/1 63/87/1
f 66/79/5 63/87/5 59/93/5
f 65/80/4 59/93/4 57/94/4
f 70/95/4 78/96/4 77/97/4
f 72/98/5 79/99/5 78/96/5
f 76/100/1 80/101/1 79/99/1
f 74/102/6 77/103/6 80/101/6
f 75/104/3 69/105/3 71/106/3
f 72/107/2 74/102/2 76/100/2
f 80/101/6 69/108/6 73/109/6
f 79/99/1 73/109/1 75/104/1
f 78/96/5 75/104/5 71/110/5
f 77/97/4 71/110/4 69/111/4
f 64/83/4 80/101/4 67/82/4
f 66/79/1 70/95/1 60/81/1
f 66/112/2 80/113/2 77/114/2
f 55/67/5 48/115/5 52/65/5
f 82/116/1 88/117/1 84/118/1
f 87/119/6 85/120/6 88/117/6
f 81/121/2 87/119/2 82/116/2
f 84/118/3 85/120/3 83/122/3
f 83/123/4 86/124/4 81/125/4
f 90/126/1 96/127/1 92/128/1
f 89/129/2 95/130/2 90/126/2
f 92/128/3 93/131/3 91/132/3
f 91/133/4 94/134/4 89/135/4
f 96/127/6 94/136/6 93/131/6
f 89/129/5 92/128/5 91/132/5
f 46/62/6 68/84/6 53/64/6
f 48/115/6 67/82/6 54/63/6
f 68/137/3 54/138/3 53/139/3
f 74/102/5 83/123/5 80/101/5
f 12/15/6 79/99/6 18/13/6
f 79/140/2 83/141/2 18/142/2
f 2/1/1 7/5/1 8/2/1
f 1/4/2 6/11/2 7/5/2
f 4/3/3 8/2/3 5/6/3
f 3/8/4 5/143/4 6/9/4
f 1/4/5 2/1/5 4/3/5
f 8/2/6 7/5/6 6/11/6
f 10/12/4 12/15/4 18/13/4
f 12/15/5 16/17/5 19/16/5
f 16/17/1 14/23/1 20/18/1
f 15/19/3 13/25/3 9/20/3
f 12/22/2 10/144/2 14/23/2
f 20/18/6 17/145/6 9/24/6
f 19/16/1 20/18/1 13/25/1
f 18/13/5 19/16/5 15/19/5
f 17/14/4 18/13/4 11/26/4
f 22/28/4 24/31/4 23/29/4
f 24/31/5 28/33/5 27/32/5
f 28/33/1 26/35/1 25/34/1
f 26/35/6 22/146/6 21/36/6
f 27/32/3 25/34/3 21/37/3
f 24/39/2 22/147/2 26/35/2
f 29/40/6 30/148/6 32/41/6
f 32/41/1 36/44/1 35/43/1
f 36/44/5 34/46/5 33/45/5
f 34/46/4 30/149/4 29/47/4
f 35/43/2 33/45/2 29/48/2
f 32/50/3 30/150/3 34/46/3
f 37/51/6 38/151/6 40/52/6
f 40/52/1 44/55/1 43/54/1
f 44/55/5 42/57/5 41/56/5
f 42/57/4 38/152/4 37/58/4
f 43/54/2 41/56/2 37/59/2
f 40/61/3 38/153/3 42/57/3
f 46/62/4 48/115/4 54/63/4
f 52/65/1 50/68/1 56/66/1
f 50/68/6 46/154/6 53/69/6
f 51/70/3 49/75/3 45/71/3
f 48/73/2 46/155/2 50/68/2
f 56/66/6 53/69/6 45/74/6
f 55/67/1 56/66/1 49/75/1
f 54/63/5 55/67/5 51/70/5
f 53/64/4 54/63/4 47/76/4
f 58/78/4 60/81/4 66/79/4
f 60/81/5 64/83/5 67/82/5
f 64/83/1 62/85/1 68/84/1
f 62/85/6 58/156/6 65/86/6
f 63/87/3 61/92/3 57/88/3
f 60/90/2 58/157/2 62/85/2
f 68/84/6 65/86/6 57/91/6
f 67/82/1 68/84/1 61/92/1
f 66/79/5 67/82/5 63/87/5
f 65/80/4 66/79/4 59/93/4
f 70/95/4 72/98/4 78/96/4
f 72/98/5 76/100/5 79/99/5
f 76/100/1 74/102/1 80/101/1
f 74/102/6 70/158/6 77/103/6
f 75/104/3 73/109/3 69/105/3
f 72/107/2 70/159/2 74/102/2
f 80/101/6 77/103/6 69/108/6
f 79/99/1 80/101/1 73/109/1
f 78/96/5 79/99/5 75/104/5
f 77/97/4 78/96/4 71/110/4
f 64/83/4 74/102/4 80/101/4
f 66/79/1 77/97/1 70/95/1
f 66/112/2 67/160/2 80/113/2
f 55/67/5 54/63/5 48/115/5
f 82/116/1 87/119/1 88/117/1
f 87/119/6 86/161/6 85/120/6
f 81/121/2 86/162/2 87/119/2
f 84/118/3 88/117/3 85/120/3
f 83/123/4 85/163/4 86/124/4
f 90/126/1 95/130/1 96/127/1
f 89/129/2 94/136/2 95/130/2
f 92/128/3 96/127/3 93/131/3
f 91/133/4 93/164/4 94/134/4
f 96/127/6 95/130/6 94/136/6
f 89/129/5 90/126/5 92/128/5
f 46/62/6 62/85/6 68/84/6
f 48/115/6 64/83/6 67/82/6
f 68/137/3 67/160/3 54/138/3
f 74/102/5 81/125/5 83/123/5
f 12/15/6 76/100/6 79/99/6
f 79/140/2 80/165/2 83/141/2
